<svg width="41" height="44" viewBox="0 0 51 54" fill="none" xmlns="http://www.w3.org/2000/svg">
<path fill-rule="evenodd" clip-rule="evenodd" d="M25.9943 0.500016C26.3476 0.498004 26.6757 0.682558 26.8575 0.985504L43.3575 28.4855C43.6416 28.9591 43.4881 29.5733 43.0145 29.8575C42.5409 30.1416 41.9266 29.9881 41.6425 29.5145L26.0112 3.46227L7.90085 34.4405C7.3859 35.728 7.14214 36.3488 7.18529 36.996C7.22589 37.6049 7.55028 38.3983 8.76824 39.8598C8.91704 40.0384 9.28466 40.3486 9.92745 40.7346C10.5497 41.1082 11.3699 41.5172 12.3612 41.9139C14.3435 42.707 16.9696 43.4347 19.994 43.7399C26.0325 44.3492 33.6289 43.2744 40.8916 37.7064C40.942 37.6677 40.996 37.634 41.0528 37.6056C41.1327 37.5656 41.2199 37.521 41.3136 37.473L41.3143 37.4726C42.1066 37.067 43.3676 36.4214 44.711 36.308C45.498 36.2415 46.3451 36.3497 47.1731 36.7858C47.9976 37.2202 48.7312 37.9417 49.3575 38.9855C50.1929 40.3778 50.5517 41.7715 50.2234 43.1665C49.9012 44.5358 48.9612 45.7116 47.6247 46.7809C46.2374 47.8907 39.5693 51.8407 30.6979 53.0533C21.7662 54.2742 10.5632 52.7208 0.3019 42.716C-0.0935356 42.3305 -0.10155 41.6973 0.284 41.3019C0.66955 40.9065 1.30266 40.8984 1.6981 41.284C11.4368 50.7792 21.9838 52.2258 30.4271 51.0717C38.9307 49.9093 45.2626 46.1093 46.3753 45.2191C47.5388 44.2884 48.0988 43.4642 48.2766 42.7085C48.4483 41.9786 48.3071 41.1222 47.6425 40.0145C47.1623 39.2141 46.676 38.7845 46.241 38.5554C45.8094 38.328 45.3574 38.2605 44.8793 38.3009C43.9554 38.3789 43.0586 38.8327 42.2248 39.2545C42.1603 39.2871 42.0962 39.3196 42.0326 39.3516C34.318 45.2331 26.2212 46.3784 19.7932 45.7298C16.5738 45.4049 13.7656 44.63 11.6182 43.7707C10.5447 43.3412 9.62621 42.8865 8.89794 42.4492C8.1902 42.0243 7.5954 41.5765 7.2318 41.1402C5.94974 39.6017 5.27413 38.3951 5.18972 37.129C5.11464 36.0028 5.5349 34.9604 5.96759 33.8871C6.00224 33.8011 6.03696 33.715 6.07152 33.6286C6.08992 33.5826 6.11171 33.5381 6.1367 33.4953L25.1367 0.995304C25.315 0.690307 25.641 0.502028 25.9943 0.500016ZM25 32C25 35.3137 22.3137 38 19 38C15.6863 38 13 35.3137 13 32C13 28.6863 15.6863 26 19 26C22.3137 26 25 28.6863 25 32ZM26.5 22C28.433 22 30 20.433 30 18.5C30 16.567 28.433 15 26.5 15C24.567 15 23 16.567 23 18.5C23 20.433 24.567 22 26.5 22Z" fill="white"/>
</svg>
